<?xml version="1.0" encoding="utf-8"?>
<!-- Generator: Adobe Illustrator 15.0.2, SVG Export Plug-In . SVG Version: 6.00 Build 0)  -->
<!DOCTYPE svg PUBLIC "-//W3C//DTD SVG 1.1//EN" "http://www.w3.org/Graphics/SVG/1.1/DTD/svg11.dtd">
<svg version="1.1" id="Layer_1" xmlns="http://www.w3.org/2000/svg" xmlns:xlink="http://www.w3.org/1999/xlink" x="0px" y="0px"
	 width="55px" height="100px" viewBox="0 0 55 100" style="enable-background:new 0 0 55 100;" xml:space="preserve">
<g>
	<path style="fill:#60462E;" d="M21.415,86.143c-0.127,0.107-0.204,0.172-0.219,0.156c-0.008,0.006-0.106-0.377-0.215-0.992
		c-1.562-2.986-2.726-6.15-3.484-9.396c-0.161,0.07-0.256,0.098-0.256,0.098c-0.013,0-0.011-0.393,0.058-1.018
		c-0.696-3.341-0.962-6.784-0.771-10.229c-0.185,0.026-0.274,0.027-0.274,0.027c-0.032-0.008,0.093-0.382,0.332-0.952
		c0.316-4.057,1.259-8.104,2.861-11.98c-0.24-0.039-0.474-0.087-0.703-0.17c-0.037-0.019-0.048-0.033-0.078-0.035
		c-1.679,4.083-2.641,8.328-2.929,12.588c0.074,0.329,0.108,0.528,0.116,0.52c0.007-0.004-0.043-0.008-0.128-0.029
		c-0.193,3.667,0.094,7.321,0.874,10.882c0.16,0.301,0.262,0.475,0.262,0.475c0.005-0.004-0.057-0.002-0.141,0.004
		c0.806,3.494,2.073,6.869,3.786,10.033c0.227,0.234,0.349,0.365,0.349,0.365c0.008-0.008-0.036,0.014-0.131,0.055
		c3.167,5.729,7.758,10.756,13.668,14.52c0.144-0.227,0.289-0.449,0.43-0.684C29.03,96.693,24.525,91.758,21.415,86.143z"/>
</g>
<g>
	<path style="fill:#60462E;" d="M16.527,64.762c0.734-0.092,2.835-0.591,4.929-2.389c2.619-2.165,3.48-3.452,3.329-4.545
		c-0.124-1.012-1.278-1.494-4.18,0.483c-2.103,1.439-3.432,4.095-4.021,5.525c-0.239,0.57-0.364,0.944-0.332,0.952
		C16.253,64.789,16.342,64.788,16.527,64.762z M20.579,58.641c2.505-1.708,3.503-1.281,3.612-0.418
		c0.13,0.949-0.611,2.07-2.879,3.933c-2.227,1.929-4.483,2.113-4.496,2.079C16.765,64.248,18.023,60.392,20.579,58.641z"/>
</g>
<g>
	<path style="fill:#BDD535;" d="M21.312,62.155c2.269-1.862,3.01-2.983,2.879-3.933c-0.109-0.863-1.107-1.29-3.612,0.418
		c-2.555,1.751-3.814,5.607-3.763,5.594C16.828,64.269,19.084,64.084,21.312,62.155z"/>
</g>
<g>
	<path style="fill:#60462E;" d="M15.737,64.239c-0.256-1.283-0.976-4.707-2.092-7.613c-1.431-3.679-2.385-4.263-3.25-2.987
		c-0.81,1.228-1.033,3.821,0.823,7.382c1.652,3.036,3.929,3.595,4.506,3.709c0.085,0.021,0.135,0.025,0.128,0.029
		C15.845,64.768,15.811,64.568,15.737,64.239z M11.403,60.75c-1.593-3.049-1.4-5.27-0.709-6.306
		c0.744-1.092,1.555-0.606,2.778,2.537c1.204,3.126,1.858,6.96,1.891,6.969C15.398,63.91,13.034,63.748,11.403,60.75z"/>
</g>
<g>
	<path style="fill:#BDD535;" d="M10.694,54.444c-0.69,1.036-0.883,3.257,0.709,6.306c1.63,2.998,3.995,3.16,3.959,3.2
		c-0.033-0.009-0.688-3.843-1.891-6.969C12.249,53.838,11.438,53.353,10.694,54.444z"/>
</g>
<g>
	<path style="fill:#60462E;" d="M17.235,76c0,0,0.101-0.02,0.262-0.09c0.676-0.299,2.574-1.348,4.071-3.651
		c1.918-2.788,2.376-4.236,1.922-5.222c-0.404-0.911-1.641-1.043-3.872,1.621c-1.605,1.931-2.156,4.828-2.319,6.332
		C17.23,75.615,17.229,76.008,17.235,76z M23.143,67.485c0.399,0.88-0.001,2.172-1.703,4.65c-1.667,2.521-3.845,3.354-3.87,3.325
		c-0.036,0.018,0.103-4.119,2.123-6.53C21.675,66.556,22.78,66.681,23.143,67.485z"/>
</g>
<g>
	<path style="fill:#BDD535;" d="M17.57,75.461c0.025,0.029,2.202-0.805,3.87-3.325c1.702-2.479,2.102-3.771,1.703-4.65
		c-0.363-0.805-1.468-0.93-3.45,1.445C17.673,71.342,17.534,75.479,17.57,75.461z"/>
</g>
<g>
	<path style="fill:#60462E;" d="M16.599,75.611c-0.613-1.15-2.243-4.194-4.135-6.606c-2.407-3.071-3.495-3.355-3.965-1.923
		c-0.427,1.375,0.099,3.871,2.87,6.746c2.424,2.416,4.76,2.311,5.351,2.262c0.083-0.006,0.146-0.008,0.141-0.004
		C16.86,76.086,16.759,75.912,16.599,75.611z M11.479,73.555c-2.461-2.567-2.932-4.782-2.551-5.994
		c0.423-1.274,1.386-1.03,3.529,1.692c2.119,2.704,3.888,6.315,3.91,6.298C16.391,75.531,13.985,76.039,11.479,73.555z"/>
</g>
<g>
	<path style="fill:#BDD535;" d="M8.928,67.561c-0.38,1.212,0.09,3.427,2.551,5.994c2.505,2.484,4.911,1.977,4.887,1.996
		c-0.021,0.018-1.791-3.594-3.91-6.298C10.314,66.53,9.351,66.286,8.928,67.561z"/>
</g>
<g>
	<path style="fill:#60462E;" d="M21.415,86.143c0.571-0.469,2.094-2.012,2.919-4.643c1.084-3.207,1.129-4.734,0.435-5.539
		c-0.635-0.768-1.867-0.566-3.284,2.6c-1.027,2.287-0.77,5.236-0.504,6.746c0.108,0.615,0.207,0.998,0.215,0.992
		C21.211,86.314,21.288,86.25,21.415,86.143z M21.686,78.877c1.229-2.734,2.288-2.9,2.842-2.246
		c0.607,0.703,0.563,2.004-0.369,4.787c-0.877,2.795-2.675,4.162-2.714,4.141C21.41,85.576,20.447,81.658,21.686,78.877z"/>
</g>
<g>
	<path style="fill:#BDD535;" d="M24.159,81.418c0.933-2.783,0.977-4.084,0.369-4.787c-0.554-0.654-1.613-0.488-2.842,2.246
		c-1.239,2.781-0.276,6.699-0.241,6.682C21.483,85.58,23.282,84.213,24.159,81.418z"/>
</g>
<g>
	<path style="fill:#60462E;" d="M20.505,86.123c-0.894-0.936-3.317-3.461-5.811-5.281c-3.143-2.279-4.261-2.232-4.324-0.736
		c-0.048,1.424,1.123,3.68,4.575,5.697c2.996,1.662,5.211,0.953,5.777,0.74c0.095-0.041,0.139-0.063,0.137-0.049
		C20.86,86.494,20.732,86.357,20.505,86.123z M15,85.545c-3.143-1.84-4.225-3.895-4.192-5.193c0.061-1.365,1.089-1.408,3.951,0.682
		c2.84,2.07,5.59,5.154,5.639,5.143C20.394,86.129,18.166,87.313,15,85.545z"/>
</g>
<g>
	<path style="fill:#BDD535;" d="M10.809,80.352c-0.033,1.299,1.049,3.354,4.192,5.193c3.165,1.768,5.393,0.584,5.397,0.631
		c-0.048,0.012-2.799-3.072-5.639-5.143C11.898,78.943,10.87,78.986,10.809,80.352z"/>
</g>
<g>
	<path style="fill:#60462E;" d="M4.067,36.177c-1.04,0.327-1.726,1.1-1.536,1.7c0.196,0.612,1.194,0.828,2.241,0.495
		c1.045-0.326,2.177-1.907,2.177-1.907S5.112,35.851,4.067,36.177z"/>
</g>
<g>
	<path style="fill:#60462E;" d="M11.672,47.204c0.409,0.38,1.253,0.129,1.898-0.571c0.641-0.687,0.83-2.327,0.83-2.327
		s-1.625,0.291-2.281,0.969C11.474,45.979,11.275,46.83,11.672,47.204z"/>
</g>
<g>
	<path style="fill:#60462E;" d="M3.716,31.164c-0.415-2.529,2.143-5.164,6.109-6.7c-0.085-0.067-0.166-0.143-0.258-0.219
		c-4.27,1.543-7.056,4.347-6.615,7.026c0.369,2.241,2.931,3.824,6.411,4.317c0.054-0.09,0.118-0.195,0.182-0.286
		C6.375,34.757,4.069,33.258,3.716,31.164z"/>
</g>
<g>
	<path style="fill:#60462E;" d="M43.847,47.599c-1.98,1.633-5.556,0.729-8.857-1.942c-0.023,0.109-0.047,0.223-0.068,0.328
		c3.479,2.925,7.304,3.951,9.401,2.229c1.748-1.452,1.842-4.454,0.541-7.719c-0.123-0.005-0.24-0.005-0.354-0.002
		C45.63,43.514,45.482,46.252,43.847,47.599z"/>
</g>
<g>
	<path style="fill:#60462E;" d="M53.33,24.434c0.427,2.534-2.142,5.175-6.105,6.695c0.094,0.077,0.167,0.153,0.25,0.222
		c4.276-1.547,7.069-4.343,6.623-7.026c-0.376-2.243-2.926-3.819-6.41-4.319c-0.052,0.092-0.118,0.198-0.182,0.293
		C50.687,20.85,52.987,22.346,53.33,24.434z"/>
</g>
<g>
	<path style="fill:#60462E;" d="M13.211,8.002c1.979-1.633,5.541-0.733,8.854,1.94c0.017-0.119,0.049-0.221,0.065-0.339
		c-3.481-2.917-7.31-3.946-9.401-2.212c-1.75,1.441-1.843,4.442-0.535,7.718c0.113-0.006,0.231-0.003,0.354-0.004
		C11.418,12.089,11.566,9.343,13.211,8.002z"/>
</g>
<g>
	<path style="fill:#60462E;" d="M38.012,4.639c2.4,0.896,3.406,4.436,2.749,8.639c0.11-0.044,0.214-0.074,0.319-0.114
		c0.795-4.477-0.229-8.289-2.767-9.239c-2.135-0.811-4.777,0.615-6.962,3.38c0.062,0.105,0.117,0.2,0.171,0.309
		C33.581,5.133,36.03,3.892,38.012,4.639z"/>
</g>
<g>
	<path style="fill:#60462E;" d="M19.446,51.856c1.993,0.292,4.309-1.098,6.247-3.566c-0.053-0.098-0.101-0.202-0.16-0.303
		c-2.067,2.475-4.512,3.71-6.483,2.98c-2.414-0.906-3.422-4.449-2.756-8.642c-0.111,0.038-0.218,0.068-0.325,0.103
		c-0.783,4.436,0.218,8.218,2.697,9.223c0.03,0.002,0.042,0.017,0.078,0.035C18.973,51.77,19.207,51.817,19.446,51.856z"/>
</g>
<g>
	<path style="fill:#E75425;" d="M35.087,40.597c0.214,1.797,0.166,3.528-0.098,5.06c3.302,2.672,6.877,3.575,8.857,1.942
		c1.635-1.347,1.783-4.085,0.662-7.106c-1.878-0.052-4.01-0.51-6.145-1.432c-0.69-0.294-1.313-0.615-1.922-0.97
		c-0.502,0.387-1.04,0.727-1.599,1.028C34.945,39.605,35.021,40.094,35.087,40.597z"/>
</g>
<g>
	<path style="fill:#E75425;" d="M14.165,27.077c-1.668-0.708-3.143-1.606-4.339-2.613c-3.966,1.536-6.524,4.171-6.109,6.7
		c0.353,2.094,2.659,3.593,5.829,4.139c0.975-1.601,2.438-3.226,4.298-4.621c0.604-0.448,1.217-0.823,1.822-1.179
		c-0.081-0.629-0.119-1.272-0.108-1.897C15.093,27.451,14.623,27.284,14.165,27.077z"/>
</g>
<g>
	<path style="fill:#4EBEE7;" d="M21.967,15.019c-0.215-1.813-0.17-3.544,0.098-5.076c-3.313-2.674-6.875-3.573-8.854-1.94
		c-1.645,1.341-1.792,4.087-0.664,7.104c1.866,0.05,4.006,0.511,6.143,1.433c0.681,0.288,1.313,0.618,1.919,0.972
		c0.5-0.395,1.04-0.728,1.594-1.036C22.108,15.997,22.023,15.516,21.967,15.019z"/>
</g>
<g>
	<path style="fill:#4EBEE7;" d="M23.578,39.791c-0.592-0.253-1.166-0.515-1.712-0.851c-0.353,0.325-0.734,0.635-1.139,0.94
		c-1.451,1.08-2.972,1.908-4.432,2.445c-0.667,4.192,0.342,7.735,2.756,8.642c1.971,0.729,4.416-0.506,6.483-2.98
		c-0.898-1.643-1.566-3.719-1.841-6.03C23.602,41.215,23.57,40.495,23.578,39.791z"/>
</g>
<g>
	<path style="fill:#4EBEE7;" d="M42.89,28.515c1.661,0.709,3.139,1.615,4.334,2.614c3.964-1.521,6.532-4.161,6.105-6.695
		c-0.343-2.088-2.643-3.584-5.824-4.136c-0.972,1.6-2.441,3.221-4.315,4.619c-0.584,0.449-1.191,0.832-1.806,1.172
		c0.09,0.645,0.115,1.271,0.105,1.904C41.953,28.139,42.423,28.309,42.89,28.515z"/>
</g>
<g>
	<path style="fill:#E75425;" d="M36.325,15.713c1.45-1.075,2.976-1.898,4.437-2.436c0.657-4.203-0.349-7.743-2.749-8.639
		c-1.982-0.747-4.432,0.494-6.489,2.974c0.899,1.646,1.565,3.73,1.837,6.033c0.098,0.745,0.12,1.462,0.122,2.169
		c0.58,0.238,1.158,0.525,1.699,0.838C35.549,16.34,35.924,16.022,36.325,15.713z"/>
</g>
<g>
	<path style="fill:#60462E;" d="M42.89,28.515c-0.467-0.206-0.938-0.376-1.4-0.521c0.001,0.046,0.008,0.095,0.002,0.146
		c0.3,0.112,0.592,0.229,0.872,0.349c5.154,2.208,8.352,6.275,7.135,9.085c-1.196,2.802-6.346,3.286-11.493,1.082
		c-0.494-0.215-0.959-0.438-1.414-0.69c-0.048,0.042-0.087,0.089-0.148,0.126c0.608,0.354,1.231,0.676,1.922,0.97
		c2.135,0.922,4.267,1.38,6.145,1.432c0.114-0.003,0.231-0.003,0.354,0.002c2.637-0.013,4.711-0.888,5.432-2.56
		c0.816-1.936-0.363-4.445-2.821-6.584c-0.083-0.068-0.156-0.145-0.25-0.222C46.029,30.13,44.551,29.224,42.89,28.515z"/>
</g>
<g>
	<path style="fill:#60462E;" d="M36.325,15.713c-0.4,0.31-0.775,0.627-1.144,0.939c0.049,0.027,0.087,0.062,0.136,0.086
		c0.237-0.192,0.47-0.389,0.725-0.577c4.488-3.361,9.607-4.085,11.433-1.639c1.826,2.436-0.328,7.141-4.809,10.506
		c-0.432,0.314-0.86,0.604-1.301,0.873c0.018,0.063,0.015,0.127,0.02,0.188c0.614-0.34,1.222-0.723,1.806-1.172
		c1.874-1.398,3.344-3.02,4.315-4.619c0.063-0.095,0.13-0.201,0.182-0.293c1.312-2.299,1.592-4.529,0.502-5.985
		c-1.268-1.691-4.035-1.914-7.108-0.856c-0.105,0.04-0.209,0.07-0.319,0.114C39.3,13.814,37.775,14.638,36.325,15.713z"/>
</g>
<g>
	<path style="fill:#60462E;" d="M14.165,27.077c0.458,0.207,0.928,0.374,1.392,0.528c-0.004-0.049-0.006-0.1-0.003-0.155
		c-0.291-0.103-0.583-0.218-0.872-0.346c-5.144-2.201-8.34-6.266-7.137-9.071c1.197-2.811,6.352-3.294,11.5-1.085
		c0.498,0.197,0.96,0.439,1.414,0.689c0.053-0.045,0.1-0.085,0.151-0.128c-0.607-0.354-1.239-0.684-1.919-0.972
		c-2.137-0.922-4.277-1.383-6.143-1.433c-0.123,0.001-0.24-0.002-0.354,0.004c-2.647-0.002-4.713,0.873-5.438,2.555
		c-0.833,1.934,0.359,4.446,2.812,6.581c0.092,0.076,0.172,0.151,0.258,0.219C11.022,25.471,12.497,26.369,14.165,27.077z"/>
</g>
<g>
	<path style="fill:#60462E;" d="M20.726,39.881c0.405-0.306,0.786-0.615,1.139-0.94c-0.04-0.017-0.087-0.057-0.125-0.075
		c-0.232,0.196-0.479,0.378-0.73,0.567c-4.485,3.367-9.606,4.097-11.427,1.659c-1.843-2.452,0.321-7.16,4.793-10.514
		c0.437-0.328,0.873-0.61,1.317-0.878c-0.016-0.064-0.022-0.125-0.028-0.197c-0.604,0.355-1.218,0.73-1.822,1.179
		c-1.859,1.396-3.323,3.021-4.298,4.621c-0.063,0.091-0.128,0.196-0.182,0.286c-1.314,2.301-1.591,4.533-0.502,5.989
		c1.262,1.693,4.03,1.906,7.107,0.851c0.107-0.034,0.214-0.064,0.325-0.103C17.754,41.789,19.275,40.961,20.726,39.881z"/>
</g>
<g>
	<path style="fill:#60462E;" d="M21.967,15.019c0.057,0.497,0.141,0.979,0.237,1.455c0.051-0.035,0.092-0.058,0.14-0.082
		c-0.057-0.303-0.099-0.606-0.141-0.927c-0.656-5.558,1.266-10.358,4.3-10.726c3.032-0.343,6.021,3.862,6.678,9.42
		c0.068,0.537,0.096,1.057,0.115,1.585c0.064,0.011,0.13,0.044,0.187,0.07c-0.002-0.707-0.024-1.424-0.122-2.169
		c-0.271-2.303-0.938-4.387-1.837-6.033c-0.054-0.108-0.109-0.203-0.171-0.309c-1.329-2.287-3.123-3.638-4.927-3.431
		c-2.097,0.252-3.666,2.534-4.296,5.73c-0.016,0.118-0.048,0.22-0.065,0.339C21.797,11.475,21.752,13.206,21.967,15.019z"/>
</g>
<g>
	<path style="fill:#60462E;" d="M35.087,40.597c-0.066-0.503-0.143-0.991-0.243-1.478c-0.047,0.039-0.099,0.059-0.134,0.09
		c0.044,0.296,0.103,0.608,0.133,0.919c0.667,5.568-1.251,10.371-4.291,10.733c-3.029,0.352-6.023-3.862-6.689-9.425
		c-0.065-0.541-0.092-1.059-0.104-1.581c-0.062-0.008-0.122-0.038-0.181-0.064c-0.008,0.704,0.024,1.424,0.114,2.166
		c0.274,2.312,0.942,4.388,1.841,6.03c0.06,0.101,0.107,0.205,0.16,0.303c1.333,2.287,3.122,3.64,4.933,3.424
		c2.095-0.244,3.669-2.541,4.296-5.729c0.021-0.105,0.045-0.219,0.068-0.328C35.253,44.125,35.301,42.394,35.087,40.597z"/>
</g>
<g>
	<path style="fill:#D21D55;" d="M26.515,14.971c2.373-0.37,4.691-0.059,6.78,0.773c-0.02-0.528-0.047-1.048-0.115-1.585
		c-0.657-5.558-3.646-9.763-6.678-9.42c-3.034,0.367-4.956,5.168-4.3,10.726c0.042,0.32,0.084,0.624,0.141,0.927
		C23.613,15.71,25.01,15.207,26.515,14.971z"/>
</g>
<g>
	<path style="fill:#FAF4A1;" d="M30.533,40.623c-2.368,0.377-4.691,0.065-6.774-0.768c0.013,0.522,0.039,1.04,0.104,1.581
		c0.666,5.563,3.66,9.776,6.689,9.425c3.04-0.362,4.958-5.165,4.291-10.733c-0.03-0.311-0.089-0.623-0.133-0.919
		C33.442,39.896,32.042,40.394,30.533,40.623z"/>
</g>
<g>
	<path style="fill:#FAF4A1;" d="M41.352,25.791c0.006,0.037,0.001,0.069,0.013,0.11c0.44-0.27,0.869-0.559,1.301-0.873
		c4.48-3.365,6.635-8.07,4.809-10.506c-1.825-2.446-6.944-1.723-11.433,1.639c-0.255,0.188-0.487,0.385-0.725,0.577
		C38.439,18.658,40.739,21.883,41.352,25.791z"/>
</g>
<g>
	<path style="fill:#FAF4A1;" d="M20.458,17.638c-0.454-0.25-0.916-0.492-1.414-0.689c-5.147-2.209-10.302-1.726-11.5,1.085
		c-1.203,2.806,1.993,6.87,7.137,9.071c0.289,0.128,0.581,0.243,0.872,0.346C15.655,23.553,17.508,19.98,20.458,17.638z"/>
</g>
<g>
	<path style="fill:#D21D55;" d="M36.591,37.965c0.455,0.252,0.92,0.476,1.414,0.69c5.147,2.204,10.297,1.72,11.493-1.082
		c1.217-2.81-1.98-6.877-7.135-9.085c-0.28-0.12-0.572-0.236-0.872-0.349C41.401,32.049,39.545,35.617,36.591,37.965z"/>
</g>
<g>
	<path style="fill:#D21D55;" d="M15.693,29.811c-0.009-0.041,0-0.072,0-0.11c-0.444,0.268-0.88,0.55-1.317,0.878
		C9.904,33.932,7.74,38.64,9.583,41.092c1.821,2.438,6.942,1.708,11.427-1.659c0.251-0.189,0.498-0.371,0.73-0.567
		C18.608,36.938,16.309,33.714,15.693,29.811z"/>
</g>
<g>
	<path style="fill:#60462E;" d="M23.759,39.855c2.083,0.833,4.406,1.145,6.774,0.768c1.51-0.229,2.909-0.728,4.178-1.414
		c0.035-0.031,0.087-0.051,0.134-0.09c0.559-0.302,1.097-0.642,1.599-1.028c0.062-0.037,0.101-0.084,0.148-0.126
		c2.954-2.348,4.81-5.916,4.9-9.825c0.006-0.052-0.001-0.101-0.002-0.146c0.01-0.633-0.016-1.26-0.105-1.904
		c-0.005-0.061-0.002-0.124-0.02-0.188c-0.012-0.041-0.007-0.073-0.013-0.11c-0.613-3.908-2.913-7.133-6.035-9.053
		c-0.049-0.024-0.087-0.059-0.136-0.086c-0.541-0.313-1.119-0.6-1.699-0.838c-0.057-0.026-0.122-0.06-0.187-0.07
		c-2.089-0.832-4.407-1.144-6.78-0.773c-1.505,0.236-2.902,0.739-4.171,1.421c-0.048,0.024-0.089,0.047-0.14,0.082
		c-0.554,0.309-1.095,0.642-1.594,1.036c-0.051,0.043-0.098,0.083-0.151,0.128c-2.95,2.343-4.803,5.915-4.905,9.813
		c-0.002,0.056,0,0.106,0.003,0.155c-0.011,0.625,0.027,1.269,0.108,1.897c0.005,0.072,0.012,0.133,0.028,0.197
		c0,0.038-0.008,0.069,0,0.11c0.615,3.903,2.915,7.128,6.046,9.055c0.038,0.019,0.086,0.059,0.125,0.075
		c0.547,0.336,1.121,0.598,1.712,0.851C23.637,39.817,23.697,39.848,23.759,39.855z M16.269,29.714
		c-1.055-6.758,3.568-13.101,10.341-14.155c6.765-1.07,13.11,3.563,14.17,10.322c1.057,6.768-3.57,13.104-10.332,14.169
		C23.682,41.096,17.341,36.488,16.269,29.714z"/>
</g>
<g>
	<path style="fill:#65B1AA;" d="M30.448,40.05c6.762-1.064,11.389-7.401,10.332-14.169c-1.06-6.76-7.405-11.393-14.17-10.322
		c-6.773,1.055-11.396,7.397-10.341,14.155C17.341,36.488,23.682,41.096,30.448,40.05z M18.25,29.41
		c-0.895-5.67,2.978-11.001,8.665-11.89c5.677-0.896,11.001,2.988,11.896,8.666c0.881,5.681-3,11.004-8.675,11.894
		C24.465,38.967,19.137,35.093,18.25,29.41z"/>
</g>
<g>
	<path style="fill:#60462E;" d="M30.136,38.08c5.675-0.89,9.556-6.213,8.675-11.894c-0.896-5.678-6.22-9.563-11.896-8.666
		c-5.687,0.889-9.56,6.22-8.665,11.89C19.137,35.093,24.465,38.967,30.136,38.08z M18.745,29.324
		c-0.839-5.391,2.85-10.45,8.246-11.296c5.401-0.851,10.448,2.843,11.31,8.24c0.832,5.396-2.846,10.452-8.248,11.299
		C24.663,38.406,19.607,34.725,18.745,29.324z"/>
</g>
<g>
	<path style="fill:#F8F296;" d="M30.052,37.567c5.402-0.847,9.08-5.903,8.248-11.299c-0.861-5.397-5.908-9.091-11.31-8.24
		c-5.396,0.846-9.085,5.905-8.246,11.296C19.607,34.725,24.663,38.406,30.052,37.567z M20.016,29.132
		c-0.741-4.697,2.47-9.098,7.168-9.845c4.709-0.737,9.111,2.472,9.859,7.168c0.739,4.712-2.484,9.12-7.188,9.856
		C25.167,37.047,20.744,33.841,20.016,29.132z"/>
</g>
<g>
	<path style="fill:#60462E;" d="M37.043,26.455c-0.748-4.696-5.15-7.905-9.859-7.168c-4.699,0.747-7.91,5.147-7.168,9.845
		c0.728,4.709,5.151,7.915,9.839,7.18C34.559,35.575,37.783,31.167,37.043,26.455z M20.333,29.08
		c-0.713-4.525,2.377-8.762,6.906-9.464c4.528-0.717,8.765,2.376,9.481,6.903c0.707,4.52-2.386,8.764-6.919,9.476
		C25.277,36.698,21.038,33.613,20.333,29.08z"/>
</g>
<g>
	<path style="fill:#F2B4CF;" d="M36.721,26.52c-0.717-4.527-4.953-7.62-9.481-6.903c-4.529,0.702-7.619,4.938-6.906,9.464
		c0.704,4.533,4.943,7.618,9.469,6.915C34.335,35.283,37.428,31.039,36.721,26.52z"/>
</g>
<g>
	<path style="fill:#60462E;" d="M19.75,3.813c-0.44,0.202-0.511,0.972-0.175,1.726c0.351,0.751,1.629,1.463,1.629,1.463
		s0.303-1.444-0.042-2.188C20.829,4.063,20.189,3.619,19.75,3.813z"/>
</g>
<g>
	<path style="fill:#60462E;" d="M8.135,12.786c0.514,0.478,1.746,0.617,1.746,0.617s-0.21-1.23-0.73-1.704
		c-0.514-0.484-1.158-0.637-1.438-0.339C7.432,11.668,7.616,12.297,8.135,12.786z"/>
</g>
<g>
	<path style="fill:#60462E;" d="M4.365,23.942c0.888,0.206,2.347-0.433,2.347-0.433s-1.035-1.222-1.918-1.431
		c-0.884-0.207-1.694,0.043-1.815,0.559C2.867,23.143,3.479,23.737,4.365,23.942z"/>
</g>
<g>
	<path style="fill:#60462E;" d="M25.45,50.1c0,0-1.589,1.574-1.779,2.821c-0.185,1.258,0.241,2.355,0.963,2.468
		c0.735,0.116,1.476-0.808,1.672-2.061C26.499,52.079,25.45,50.1,25.45,50.1z"/>
</g>
<g>
	<path style="fill:#60462E;" d="M36.232,48.961c0,0-0.3,1.365,0.03,2.092c0.311,0.725,0.926,1.161,1.34,0.962
		c0.415-0.183,0.504-0.914,0.174-1.641C37.449,49.648,36.232,48.961,36.232,48.961z"/>
</g>
<g>
	<path style="fill:#60462E;" d="M48.067,44.476c0.829,0.694,1.832,0.854,2.235,0.368c0.397-0.478,0.05-1.424-0.782-2.118
		c-0.832-0.688-2.732-0.785-2.732-0.785S47.234,43.782,48.067,44.476z"/>
</g>
<g>
	<path style="fill:#60462E;" d="M54.088,32.447c0.094-0.567-0.612-1.158-1.568-1.307c-0.966-0.167-2.496,0.611-2.496,0.611
		s1.195,1.257,2.151,1.414C53.144,33.326,53.998,32.993,54.088,32.447z"/>
</g>
<g>
	<path style="fill:#60462E;" d="M52.615,19.623c1.102-0.324,1.834-1.124,1.643-1.768c-0.194-0.635-1.248-0.895-2.355-0.552
		c-1.106,0.327-2.321,1.977-2.321,1.977S51.5,19.96,52.615,19.623z"/>
</g>
<g>
	<path style="fill:#60462E;" d="M42.523,11.708c0,0,1.896-0.519,2.604-1.402c0.702-0.878,0.854-1.916,0.332-2.325
		c-0.506-0.399-1.488-0.009-2.179,0.863C42.577,9.725,42.523,11.708,42.523,11.708z"/>
</g>
<g>
	<path style="fill:#60462E;" d="M31.535,5.507c0,0,1.428-1.425,1.6-2.556c0.171-1.14-0.229-2.13-0.883-2.236
		c-0.667-0.095-1.334,0.753-1.504,1.878C30.579,3.719,31.535,5.507,31.535,5.507z"/>
</g>
</svg>
